<svg id="Layer_1" height="512" viewBox="0 0 512 512" width="512" xmlns="http://www.w3.org/2000/svg" data-name="Layer 1"><path d="m500.96 193.68a1.914 1.914 0 0 1 -3.12 1.84l-59.13-50.84 58.75-63.24a1.908 1.908 0 0 1 3.27 1.68l-11.04 54.68a1.944 1.944 0 0 0 0 .76z" fill="#8383e2"/><path d="m500.96 421.91a1.911 1.911 0 0 1 -3.12 1.83l-59.13-50.83 58.75-63.25a1.91 1.91 0 0 1 3.27 1.68l-11.04 54.69a1.944 1.944 0 0 0 0 .76z" fill="#8383e2"/><path d="m203.52 275.49c64.9.21 145.62 24.25 235.19 97.42-88.22 64.93-171.77 88.93-234.47 91.8 14.5-1.35 26.13-43.19 26.13-94.6 0-52.26-12.02-94.62-26.85-94.62z" fill="#a0a0ea"/><path d="m203.52 275.49c14.83 0 26.85 42.36 26.85 94.62 0 51.41-11.63 93.25-26.13 94.6q-.36.03-.72.03c-14.83 0-26.86-42.37-26.86-94.63s12.03-94.62 26.86-94.62z" fill="#f96269"/><path d="m86.48 75.27c73.59-36.63 196.96-57.44 352.23 69.41-153.02 112.63-269.93 102.09-342.54 71.79a87.4 87.4 0 0 0 -9.69-141.2z" fill="#a0a0ea"/><path d="m127.55 149.39a87.2 87.2 0 0 1 -31.38 67.08c-55.55-23.18-85.17-57.94-85.17-57.94l12.75-13.29-12.75-14.69s26.88-31.09 75.48-55.28a87.329 87.329 0 0 1 41.07 74.12z" fill="#ccf"/><circle cx="69.73" cy="125.81" fill="#9ea8b5" r="7.23"/><path d="m104.024 89.75c71.718-32.351 185.158-46.507 326.289 61 2.788-1.987 5.584-4 8.4-6.073-155.273-126.847-278.643-106.037-352.233-69.407a87.81 87.81 0 0 1 17.544 14.48z" fill="#8282c4"/><path d="m94.48 94.27q4.638-2.308 9.544-4.52a87.81 87.81 0 0 0 -17.544-14.48c-48.6 24.19-75.48 55.28-75.48 55.28l12.421 14.31c9.458-9.582 33.9-32.095 71.059-50.59z" fill="#a7a7d3"/><g fill="#264160"><path d="m495.739 366.4 10.877-53.868a7.914 7.914 0 0 0 -13.556-6.95l-54.934 59.138c-40.979-32.855-82.711-57.567-124.107-73.483-37.233-14.315-74.4-21.632-110.482-21.749h-.019c-10.39 0-18.72 10.792-24.761 32.078-5.219 18.39-8.093 42.734-8.093 68.548s2.874 50.159 8.093 68.55c6.041 21.285 14.371 32.077 24.761 32.077.087 0 .172-.007.259-.008.041 0 .082 0 .123-.006.29-.008.578-.023.864-.047 34.93-1.625 71.505-9.286 108.73-22.792 42.446-15.4 84.449-38.045 124.909-67.329l55.522 47.733a7.913 7.913 0 0 0 12.912-7.585zm-291.964 92.322-.311.014c-2.671-.081-8.332-6.327-13.162-23.349-4.926-17.355-7.638-40.536-7.638-65.274s2.712-47.918 7.638-65.273c4.86-17.127 10.562-23.348 13.212-23.353h.009c2.651.008 8.351 6.23 13.21 23.353 4.926 17.355 7.638 40.536 7.638 65.273s-2.712 47.919-7.638 65.274c-4.71 16.597-10.21 22.953-12.958 23.335zm17.168-1.3a89.1 89.1 0 0 0 7.335-18.762c5.219-18.391 8.093-42.736 8.093-68.55s-2.874-50.158-8.093-68.548a86.983 86.983 0 0 0 -7.719-19.449c29.241 1.986 59.15 8.785 89.153 20.321 39.643 15.242 79.689 38.852 119.126 70.222-86.316 61.774-162.038 79.969-207.895 84.769zm226.405-85 44.634-48.05-8.17 40.461a7.932 7.932 0 0 0 0 3.153l8.873 43.416z"/><path d="m269.346 343.123a11.593 11.593 0 0 0 -2.819-16.87l-8.4-5.454a6 6 0 1 0 -6.533 10.066l8.03 5.212-4.979 6.363a6 6 0 1 0 9.449 7.4z"/><path d="m295.48 333.977a6 6 0 0 0 1.767 8.3l8.03 5.212-4.98 6.364a6 6 0 1 0 9.449 7.4l5.254-6.718a11.594 11.594 0 0 0 -2.817-16.871l-8.4-5.454a6 6 0 0 0 -8.303 1.767z"/><path d="m342.9 353.687 8.032 5.212-4.982 6.364a6 6 0 1 0 9.449 7.4l5.255-6.713a11.593 11.593 0 0 0 -2.818-16.871l-8.4-5.453a6 6 0 1 0 -6.534 10.065z"/><path d="m320.074 387.921 8.031 5.212-4.981 6.364a6 6 0 1 0 9.449 7.4l5.254-6.713a11.594 11.594 0 0 0 -2.817-16.871l-8.4-5.454a6 6 0 0 0 -6.533 10.066z"/><path d="m281.365 386.732-8.4-5.453a6 6 0 1 0 -6.533 10.065l8.031 5.213-4.981 6.363a6 6 0 1 0 9.449 7.4l5.255-6.712a11.6 11.6 0 0 0 -2.819-16.872z"/><path d="m259.116 236.6c57.989-11.67 118.286-40.012 179.289-84.265l55.519 47.731a7.914 7.914 0 0 0 12.913-7.584l-11.1-54.31 10.877-53.867a7.914 7.914 0 0 0 -13.556-6.951l-54.933 59.138c-58.111-46.62-116.542-76.467-173.756-88.744-47.177-10.126-93.592-8.394-137.95 5.144-75.485 23.038-118.178 71.679-119.958 73.738a6 6 0 0 0 .008 7.857l9.158 10.553-8.958 9.341a6 6 0 0 0 -.235 8.044c1.656 1.944 41.417 47.853 115.452 69.495a272.406 272.406 0 0 0 76.719 10.861 306.4 306.4 0 0 0 60.511-6.181zm232.866-140.452-8.17 40.462a7.927 7.927 0 0 0 0 3.152l8.873 43.417-45.34-38.98zm-396.913 113.308c-40.669-17.717-66.638-41.576-75.8-50.876l8.808-9.186a6 6 0 0 0 .2-8.086l-9.2-10.6c8.416-8.589 31.6-30.271 67.039-48.5a81.375 81.375 0 0 1 8.949 127.241zm30.8 11.125c-6.486-1.879-12.689-3.972-18.638-6.208a93.381 93.381 0 0 0 -8.916-138.063 262.226 262.226 0 0 1 31.609-11.939c42.383-12.935 86.768-14.58 131.93-4.89 54.792 11.759 110.946 40.331 166.992 84.956-58.578 42.082-116.292 69.088-171.653 80.311-45.648 9.252-89.832 7.852-131.328-4.167z"/><path d="m69.73 112.584a13.229 13.229 0 1 0 13.231 13.228 13.243 13.243 0 0 0 -13.231-13.228zm0 14.457a1.229 1.229 0 1 1 1.231-1.229 1.231 1.231 0 0 1 -1.231 1.229z"/><path d="m150.668 80.261 7.733 5.154a1.93 1.93 0 0 1 .2 3.062l-6.113 5.315a6 6 0 0 0 7.873 9.055l6.113-5.314a13.931 13.931 0 0 0 -1.414-22.1l-7.735-5.155a6 6 0 1 0 -6.654 9.986z"/><path d="m160.358 158.192 6.113-5.314a13.931 13.931 0 0 0 -1.414-22.1l-7.735-5.155a6 6 0 1 0 -6.654 9.985l7.733 5.155a1.93 1.93 0 0 1 .2 3.062l-6.113 5.313a6 6 0 1 0 7.873 9.057z"/><path d="m196.322 80.261 7.734 5.154a1.929 1.929 0 0 1 .2 3.062l-6.111 5.315a6 6 0 0 0 7.873 9.055l6.111-5.313a13.929 13.929 0 0 0 -1.414-22.1l-7.734-5.155a6 6 0 1 0 -6.655 9.986z"/><path d="m196.322 135.6 7.734 5.155a1.929 1.929 0 0 1 .2 3.062l-6.111 5.314a6 6 0 1 0 7.873 9.055l6.111-5.313a13.928 13.928 0 0 0 -1.414-22.1l-7.734-5.155a6 6 0 1 0 -6.655 9.985z"/><path d="m241.978 80.261 7.733 5.154a1.931 1.931 0 0 1 .2 3.062l-6.111 5.315a6 6 0 0 0 7.873 9.055l6.112-5.314a13.929 13.929 0 0 0 -1.414-22.1l-7.734-5.155a6 6 0 1 0 -6.654 9.986z"/><path d="m241.978 135.6 7.733 5.155a1.931 1.931 0 0 1 .2 3.062l-6.112 5.313a6 6 0 1 0 7.873 9.057l6.112-5.314a13.929 13.929 0 0 0 -1.414-22.1l-7.734-5.155a6 6 0 1 0 -6.654 9.985z"/><path d="m293.389 104.319a5.974 5.974 0 0 0 3.933-1.472l6.113-5.314a13.93 13.93 0 0 0 -1.413-22.1 6 6 0 1 0 -6.657 9.984 1.929 1.929 0 0 1 .2 3.062l-6.112 5.315a6 6 0 0 0 3.94 10.527z"/><path d="m287.632 135.6 7.733 5.155a1.929 1.929 0 0 1 .2 3.062l-6.112 5.313a6 6 0 1 0 7.873 9.057l6.113-5.314a13.931 13.931 0 0 0 -1.414-22.1l-7.735-5.155a6 6 0 1 0 -6.654 9.985z"/><path d="m333.285 112.783 7.736 5.155a1.929 1.929 0 0 1 .195 3.061l-6.111 5.315a6 6 0 0 0 7.873 9.055l6.111-5.313a13.928 13.928 0 0 0 -1.413-22.1l-7.735-5.156a6 6 0 0 0 -6.656 9.986z"/><path d="m170.274 204.288c-2.365-.252-4.755-.54-7.1-.855a6 6 0 0 0 -1.6 11.894c2.456.329 4.954.63 7.427.894a6.115 6.115 0 0 0 .645.034 6 6 0 0 0 .628-11.967z"/><path d="m306.2 192.352a6 6 0 0 0 -7.6-3.778c-33.166 11.135-68.083 17.085-100.977 17.206a6 6 0 0 0 .022 12h.023c34.16-.126 70.383-6.291 104.752-17.83a6 6 0 0 0 3.78-7.598z"/></g></svg>